<svg width="130" height="37" viewBox="0 0 130 37" fill="none" xmlns="http://www.w3.org/2000/svg">
<path d="M18.3516 2.064C16.4316 2.064 14.8476 3.024 13.5996 4.944C12.3996 6.816 11.7276 9.12 11.5836 11.76C11.4396 14.4 11.7276 17.088 12.4476 19.872C13.6956 24.048 16.0956 26.976 19.5996 28.56C23.1036 30.144 26.8956 30 30.9276 28.032C31.5516 27.696 32.0316 27.648 32.3196 27.888C32.5596 28.128 32.5596 28.512 32.3196 29.04C31.7916 30.192 30.4956 31.824 28.3356 33.552C26.2236 35.28 22.6236 36.624 18.8316 36.624C13.8876 36.624 9.71163 35.04 6.35162 31.872C2.99163 28.656 1.11963 24.576 0.783625 19.536C0.399625 14.928 1.98363 10.224 4.86363 6.624C7.79163 2.976 12.7356 0.575998 18.3516 0.575998C23.9676 0.575998 28.1436 2.064 30.7836 5.088C32.5116 7.056 33.1836 9.12 32.7516 11.232C32.3676 13.056 31.3116 14.208 29.5836 14.736C29.2476 14.832 28.9116 14.88 28.5276 14.928C19.4556 15.648 26.4156 2.064 18.3516 2.064ZM34.2479 22.32C34.2959 18.24 35.5919 14.88 38.1839 12.144C40.7759 9.408 44.2319 8.016 48.5519 8.016C52.8719 8.016 56.3279 9.408 58.9199 12.144C61.5599 14.88 62.8559 18.24 62.8559 22.32C62.8559 26.4 61.5599 29.808 58.9199 32.544C56.3279 35.28 52.8719 36.624 48.5519 36.624C44.2319 36.624 40.7759 35.28 38.1359 32.544C35.5439 29.808 34.2479 26.4 34.2479 22.32ZM45.8639 9.984C43.3679 10.656 42.9359 15.072 44.5679 23.184C45.2879 26.784 46.1999 29.712 47.3519 31.872C48.5039 34.032 49.7999 34.944 51.2879 34.656C53.7359 33.984 54.1679 29.568 52.5839 21.456C51.8639 17.856 50.9519 14.976 49.7999 12.816C48.6479 10.656 47.3519 9.696 45.8639 9.984ZM84.6059 7.344C86.6699 7.44 87.9179 8.4 88.4459 10.176C88.9739 11.952 88.7339 13.92 87.7259 16.176L80.1899 35.232C79.9979 35.76 79.6139 36 79.0859 36H73.1339C72.6059 36 72.2219 35.76 72.0299 35.232L64.0139 13.248C63.2459 11.136 62.7659 10.512 61.6139 10.128C60.9899 9.936 60.7019 9.648 60.7019 9.264C60.7019 8.784 61.0379 8.592 61.7099 8.64C65.0219 8.784 67.2779 8.832 68.4779 8.832C71.1179 8.832 73.1819 8.784 74.5739 8.64C75.2459 8.592 75.5819 8.784 75.5819 9.264C75.5819 9.6 75.2939 9.936 74.7659 10.176C74.0459 10.56 74.2859 11.472 74.7659 13.248L79.4699 30.096L83.8379 17.808C84.4139 16.464 83.7419 15.12 82.9259 14.4C82.1579 13.68 81.0539 12.384 80.8619 11.088C80.5259 9.168 82.1579 7.296 84.6059 7.344ZM103.332 8.016C109.428 7.92 112.98 10.944 114.372 14.16C115.476 16.32 115.668 18.288 115.428 19.824C115.332 20.4 114.996 20.688 114.42 20.688H99.5879L99.9239 22.464C101.604 29.328 106.596 32.256 113.556 30.288C114.084 30.144 114.516 30.192 114.756 30.432C114.996 30.768 114.996 31.152 114.66 31.584C113.652 32.976 112.548 34.272 109.332 35.616C107.748 36.288 105.972 36.624 104.1 36.624C100.164 36.624 96.8519 35.376 94.2119 32.928C91.5719 30.432 90.0839 27.216 89.7959 23.328C89.4599 19.152 90.6119 15.552 93.2039 12.576C95.7959 9.552 99.1559 8.064 103.332 8.016ZM99.3959 18.288H102.9C104.532 18.288 105.588 18.144 106.02 17.904C106.452 17.616 106.692 16.896 106.692 15.696C106.692 14.208 106.404 12.768 105.78 11.472C105.156 10.176 104.34 9.504 103.332 9.504C102.132 9.504 101.172 10.368 100.404 12.144C99.6839 13.872 99.3479 15.936 99.3959 18.288ZM127.829 34.944C126.677 36.048 125.285 36.624 123.701 36.624C122.117 36.624 120.725 36.048 119.573 34.944C118.469 33.792 117.893 32.4 117.893 30.816C117.893 29.232 118.469 27.84 119.573 26.688C120.725 25.536 122.117 24.96 123.701 24.96C125.285 24.96 126.677 25.536 127.829 26.688C128.981 27.84 129.557 29.232 129.557 30.816C129.557 32.4 128.981 33.792 127.829 34.944Z" fill="black"/>
</svg>
