<svg width="86" height="86" viewBox="0 0 86 86" fill="none" xmlns="http://www.w3.org/2000/svg">
<rect width="86" height="86" fill="#FFB557"/>
<path d="M42.9032 40.9905C63.9987 40.9905 81.1 32.4849 81.1 21.9928C81.1 11.5006 63.9987 2.995 42.9032 2.995C21.8077 2.995 4.70642 11.5006 4.70642 21.9928C4.70642 32.4849 21.8077 40.9905 42.9032 40.9905Z" fill="#6CA8D0"/>
<path d="M42.9032 63.4461C63.9987 63.4461 81.1 58.4192 81.1 52.2183C81.1 46.0173 63.9987 40.9905 42.9032 40.9905C21.8077 40.9905 4.70642 46.0173 4.70642 52.2183C4.70642 58.4192 21.8077 63.4461 42.9032 63.4461Z" fill="#6CA8D0"/>
<path d="M42.9032 76.3419C63.9987 76.3419 81.1 73.4551 81.1 69.894C81.1 66.333 63.9987 63.4462 42.9032 63.4462C21.8077 63.4462 4.70642 66.333 4.70642 69.894C4.70642 73.4551 21.8077 76.3419 42.9032 76.3419Z" fill="#6CA8D0"/>
<path d="M42.9032 82.81C63.9987 82.81 81.1 81.362 81.1 79.5759C81.1 77.7897 63.9987 76.3418 42.9032 76.3418C21.8077 76.3418 4.70642 77.7897 4.70642 79.5759C4.70642 81.362 21.8077 82.81 42.9032 82.81Z" fill="#6CA8D0"/>
</svg>
