<svg width="668" height="714" viewBox="0 0 668 714" fill="none" xmlns="http://www.w3.org/2000/svg">
<path d="M334 332.279C518.463 332.279 668 257.896 668 166.14C668 74.3832 518.463 0 334 0C149.537 0 0 74.3832 0 166.14C0 257.896 149.537 332.279 334 332.279Z" fill="#FF8181"/>
<path d="M334 534.379C518.463 534.379 668 490.418 668 436.19C668 381.961 518.463 338 334 338C149.537 338 0 381.961 0 436.19C0 490.418 149.537 534.379 334 534.379Z" fill="#FFB557"/>
<path d="M334 652.434C518.463 652.434 668 627.189 668 596.047C668 564.904 518.463 539.659 334 539.659C149.537 539.659 0 564.904 0 596.047C0 627.189 149.537 652.434 334 652.434Z" fill="#8BA96A"/>
<path d="M334 714C518.463 714 668 701.337 668 685.717C668 670.097 518.463 657.434 334 657.434C149.537 657.434 0 670.097 0 685.717C0 701.337 149.537 714 334 714Z" fill="#6CA8D0"/>
</svg>
